<mxfile host="app.diagrams.net" agent="Mozilla/5.0 (X11; Linux x86_64; rv:132.0) Gecko/20100101 Firefox/132.0" version="24.8.3">
  <diagram name="Page-1" id="z3uiYpUnsPiuGHKw1Adf">
    <mxGraphModel dx="533" dy="1635" grid="1" gridSize="10" guides="1" tooltips="1" connect="1" arrows="0" fold="1" page="1" pageScale="1" pageWidth="850" pageHeight="1100" math="0" shadow="0">
      <root>
        <mxCell id="0" />
        <mxCell id="1" parent="0" />
        <mxCell id="mSUXQMuxm9gAVgi_MWSv-7" value="GTFSContainer" style="swimlane;whiteSpace=wrap;html=1;" parent="1" vertex="1">
          <mxGeometry x="350" y="-120" width="230" height="610" as="geometry" />
        </mxCell>
        <mxCell id="mSUXQMuxm9gAVgi_MWSv-18" value="GTFSLoader loader;&lt;div&gt;GTFSStatic static;&lt;/div&gt;&lt;div&gt;GTFSRealtime realtime;&lt;/div&gt;" style="text;strokeColor=none;fillColor=none;align=left;verticalAlign=middle;spacingLeft=4;spacingRight=4;overflow=hidden;points=[[0,0.5],[1,0.5]];portConstraint=eastwest;rotatable=0;whiteSpace=wrap;html=1;" parent="mSUXQMuxm9gAVgi_MWSv-7" vertex="1">
          <mxGeometry x="15" y="30" width="175" height="50" as="geometry" />
        </mxCell>
        <mxCell id="mSUXQMuxm9gAVgi_MWSv-35" value="GTFS accessors&lt;div&gt;&lt;span style=&quot;background-color: initial;&quot;&gt;Uses combined static + realtime data&lt;/span&gt;&lt;/div&gt;&lt;div&gt;&lt;span style=&quot;background-color: initial;&quot;&gt;next_trip(station_id)&lt;/span&gt;&lt;br&gt;&lt;/div&gt;&lt;div&gt;trip_status(trip_id)&lt;/div&gt;&lt;div&gt;trip_estimate(trip_id)&lt;/div&gt;&lt;div&gt;...&lt;/div&gt;&lt;div&gt;&lt;br&gt;&lt;/div&gt;" style="rounded=1;whiteSpace=wrap;html=1;" parent="mSUXQMuxm9gAVgi_MWSv-7" vertex="1">
          <mxGeometry x="10" y="485" width="185" height="115" as="geometry" />
        </mxCell>
        <mxCell id="mSUXQMuxm9gAVgi_MWSv-38" value="GTFS stat collection&lt;div&gt;for given time, we can collect&lt;/div&gt;&lt;div&gt;trip_late()&lt;/div&gt;&lt;div&gt;trip_dwell()&lt;/div&gt;&lt;div&gt;...&lt;/div&gt;" style="rounded=1;whiteSpace=wrap;html=1;" parent="mSUXQMuxm9gAVgi_MWSv-7" vertex="1">
          <mxGeometry x="10" y="250" width="190" height="90" as="geometry" />
        </mxCell>
        <mxCell id="mSUXQMuxm9gAVgi_MWSv-39" value="GTFS Map generation&lt;div&gt;network_bbox()&lt;/div&gt;&lt;div&gt;station_locations()&lt;/div&gt;&lt;div&gt;vehicle_locations()&lt;/div&gt;&lt;div&gt;...&lt;br&gt;&lt;/div&gt;&lt;div&gt;&lt;br&gt;&lt;/div&gt;" style="rounded=1;whiteSpace=wrap;html=1;glass=0;" parent="mSUXQMuxm9gAVgi_MWSv-7" vertex="1">
          <mxGeometry x="10" y="350" width="190" height="130" as="geometry" />
        </mxCell>
        <mxCell id="pv3PhT8Jc1KmmrtQ2b4k-3" value="&lt;div align=&quot;center&quot;&gt;Main control loop&lt;/div&gt;&lt;div align=&quot;center&quot;&gt;&lt;br&gt;&lt;/div&gt;&lt;div align=&quot;center&quot;&gt;&lt;br&gt;&lt;/div&gt;&lt;div align=&quot;center&quot;&gt;&lt;br&gt;&lt;/div&gt;&lt;blockquote&gt;&lt;div&gt;&lt;br&gt;&lt;/div&gt;&lt;/blockquote&gt;" style="rounded=1;whiteSpace=wrap;html=1;" vertex="1" parent="mSUXQMuxm9gAVgi_MWSv-7">
          <mxGeometry x="10" y="80" width="190" height="150" as="geometry" />
        </mxCell>
        <mxCell id="pv3PhT8Jc1KmmrtQ2b4k-4" value="Refresh Daemon (on API request limit)" style="rounded=1;whiteSpace=wrap;html=1;" vertex="1" parent="mSUXQMuxm9gAVgi_MWSv-7">
          <mxGeometry x="20" y="130" width="70" height="80" as="geometry" />
        </mxCell>
        <mxCell id="pv3PhT8Jc1KmmrtQ2b4k-5" value="Data Save Daemon" style="rounded=1;whiteSpace=wrap;html=1;" vertex="1" parent="mSUXQMuxm9gAVgi_MWSv-7">
          <mxGeometry x="115" y="130" width="80" height="80" as="geometry" />
        </mxCell>
        <mxCell id="pv3PhT8Jc1KmmrtQ2b4k-6" style="edgeStyle=orthogonalEdgeStyle;rounded=0;orthogonalLoop=1;jettySize=auto;html=1;exitX=1;exitY=0.25;exitDx=0;exitDy=0;entryX=0.029;entryY=0.26;entryDx=0;entryDy=0;entryPerimeter=0;" edge="1" parent="mSUXQMuxm9gAVgi_MWSv-7" source="pv3PhT8Jc1KmmrtQ2b4k-4" target="pv3PhT8Jc1KmmrtQ2b4k-5">
          <mxGeometry relative="1" as="geometry" />
        </mxCell>
        <mxCell id="mSUXQMuxm9gAVgi_MWSv-14" style="edgeStyle=orthogonalEdgeStyle;rounded=0;orthogonalLoop=1;jettySize=auto;html=1;exitX=0.5;exitY=1;exitDx=0;exitDy=0;entryX=0.5;entryY=0;entryDx=0;entryDy=0;" parent="1" source="mSUXQMuxm9gAVgi_MWSv-13" target="mSUXQMuxm9gAVgi_MWSv-9" edge="1">
          <mxGeometry relative="1" as="geometry" />
        </mxCell>
        <mxCell id="pv3PhT8Jc1KmmrtQ2b4k-2" style="edgeStyle=orthogonalEdgeStyle;rounded=0;orthogonalLoop=1;jettySize=auto;html=1;exitX=1;exitY=0.75;exitDx=0;exitDy=0;entryX=0.25;entryY=0;entryDx=0;entryDy=0;" edge="1" parent="1" source="mSUXQMuxm9gAVgi_MWSv-13" target="mSUXQMuxm9gAVgi_MWSv-24">
          <mxGeometry relative="1" as="geometry" />
        </mxCell>
        <mxCell id="mSUXQMuxm9gAVgi_MWSv-13" value="GTFSLoader" style="swimlane;whiteSpace=wrap;html=1;" parent="1" vertex="1">
          <mxGeometry x="30" y="40" width="200" height="200" as="geometry" />
        </mxCell>
        <mxCell id="mSUXQMuxm9gAVgi_MWSv-15" value="&lt;div&gt;sync()&lt;/div&gt;&lt;div&gt;update_frequency() -&amp;gt; determined by API request limit&lt;br&gt;&lt;/div&gt;&lt;div&gt;&lt;br&gt;&lt;div&gt;get_realtime_tripUpdate()&lt;/div&gt;&lt;div&gt;get_realtime_alerts()&lt;/div&gt;&lt;div&gt;get_realtime_vehiclePosition()&lt;/div&gt;&lt;div&gt;get_static()&lt;/div&gt;&lt;/div&gt;" style="text;strokeColor=none;fillColor=none;align=left;verticalAlign=middle;spacingLeft=4;spacingRight=4;overflow=hidden;points=[[0,0.5],[1,0.5]];portConstraint=eastwest;rotatable=0;whiteSpace=wrap;html=1;" parent="mSUXQMuxm9gAVgi_MWSv-13" vertex="1">
          <mxGeometry x="10" y="100" width="180" height="110" as="geometry" />
        </mxCell>
        <mxCell id="mSUXQMuxm9gAVgi_MWSv-16" value="realtime -&amp;gt; opened protobuf&amp;nbsp;&lt;div&gt;static -&amp;gt; opened files&lt;/div&gt;" style="text;strokeColor=none;fillColor=none;align=left;verticalAlign=middle;spacingLeft=4;spacingRight=4;overflow=hidden;points=[[0,0.5],[1,0.5]];portConstraint=eastwest;rotatable=0;whiteSpace=wrap;html=1;" parent="mSUXQMuxm9gAVgi_MWSv-13" vertex="1">
          <mxGeometry x="10" y="20" width="190" height="80" as="geometry" />
        </mxCell>
        <mxCell id="mSUXQMuxm9gAVgi_MWSv-19" value="static site generation" style="swimlane;whiteSpace=wrap;html=1;" parent="1" vertex="1">
          <mxGeometry x="820" y="480" width="200" height="200" as="geometry" />
        </mxCell>
        <mxCell id="mSUXQMuxm9gAVgi_MWSv-36" value="Timetable view per-station, per-trip&lt;div&gt;&lt;br&gt;&lt;/div&gt;&lt;div&gt;routing based on trip,&lt;/div&gt;&lt;div&gt;/&amp;lt;trip id&amp;gt;/&amp;lt;station&amp;gt;/&amp;lt;trip id&amp;gt;, etc&lt;/div&gt;" style="text;strokeColor=none;fillColor=none;align=left;verticalAlign=middle;spacingLeft=4;spacingRight=4;overflow=hidden;points=[[0,0.5],[1,0.5]];portConstraint=eastwest;rotatable=0;whiteSpace=wrap;html=1;" parent="mSUXQMuxm9gAVgi_MWSv-19" vertex="1">
          <mxGeometry x="10" y="30" width="180" height="160" as="geometry" />
        </mxCell>
        <mxCell id="mSUXQMuxm9gAVgi_MWSv-33" style="edgeStyle=orthogonalEdgeStyle;rounded=0;orthogonalLoop=1;jettySize=auto;html=1;exitX=0.5;exitY=0;exitDx=0;exitDy=0;entryX=0.25;entryY=1;entryDx=0;entryDy=0;" parent="1" source="mSUXQMuxm9gAVgi_MWSv-24" target="mSUXQMuxm9gAVgi_MWSv-7" edge="1">
          <mxGeometry relative="1" as="geometry" />
        </mxCell>
        <mxCell id="mSUXQMuxm9gAVgi_MWSv-24" value="Different datasources" style="swimlane;fontStyle=0;childLayout=stackLayout;horizontal=1;startSize=30;horizontalStack=0;resizeParent=1;resizeParentMax=0;resizeLast=0;collapsible=1;marginBottom=0;whiteSpace=wrap;html=1;" parent="1" vertex="1">
          <mxGeometry x="161" y="570" width="140" height="120" as="geometry" />
        </mxCell>
        <mxCell id="mSUXQMuxm9gAVgi_MWSv-25" value="bart original" style="text;strokeColor=none;fillColor=none;align=left;verticalAlign=middle;spacingLeft=4;spacingRight=4;overflow=hidden;points=[[0,0.5],[1,0.5]];portConstraint=eastwest;rotatable=0;whiteSpace=wrap;html=1;" parent="mSUXQMuxm9gAVgi_MWSv-24" vertex="1">
          <mxGeometry y="30" width="140" height="30" as="geometry" />
        </mxCell>
        <mxCell id="mSUXQMuxm9gAVgi_MWSv-26" value="311 capitol corridor" style="text;strokeColor=none;fillColor=none;align=left;verticalAlign=middle;spacingLeft=4;spacingRight=4;overflow=hidden;points=[[0,0.5],[1,0.5]];portConstraint=eastwest;rotatable=0;whiteSpace=wrap;html=1;" parent="mSUXQMuxm9gAVgi_MWSv-24" vertex="1">
          <mxGeometry y="60" width="140" height="30" as="geometry" />
        </mxCell>
        <mxCell id="mSUXQMuxm9gAVgi_MWSv-27" value="311 AC Transit" style="text;strokeColor=none;fillColor=none;align=left;verticalAlign=middle;spacingLeft=4;spacingRight=4;overflow=hidden;points=[[0,0.5],[1,0.5]];portConstraint=eastwest;rotatable=0;whiteSpace=wrap;html=1;" parent="mSUXQMuxm9gAVgi_MWSv-24" vertex="1">
          <mxGeometry y="90" width="140" height="30" as="geometry" />
        </mxCell>
        <mxCell id="mSUXQMuxm9gAVgi_MWSv-37" style="edgeStyle=orthogonalEdgeStyle;rounded=0;orthogonalLoop=1;jettySize=auto;html=1;exitX=0.75;exitY=1;exitDx=0;exitDy=0;entryX=0;entryY=0.25;entryDx=0;entryDy=0;" parent="1" source="mSUXQMuxm9gAVgi_MWSv-35" target="mSUXQMuxm9gAVgi_MWSv-19" edge="1">
          <mxGeometry relative="1" as="geometry" />
        </mxCell>
        <mxCell id="pv3PhT8Jc1KmmrtQ2b4k-1" value="" style="group" vertex="1" connectable="0" parent="1">
          <mxGeometry x="10" y="300" width="140" height="80" as="geometry" />
        </mxCell>
        <mxCell id="mSUXQMuxm9gAVgi_MWSv-9" value="" style="rounded=0;whiteSpace=wrap;html=1;" parent="pv3PhT8Jc1KmmrtQ2b4k-1" vertex="1">
          <mxGeometry width="120" height="60" as="geometry" />
        </mxCell>
        <mxCell id="mSUXQMuxm9gAVgi_MWSv-12" value="" style="rounded=0;whiteSpace=wrap;html=1;" parent="pv3PhT8Jc1KmmrtQ2b4k-1" vertex="1">
          <mxGeometry x="10" y="10" width="120" height="60" as="geometry" />
        </mxCell>
        <mxCell id="mSUXQMuxm9gAVgi_MWSv-11" value="BARTLoader" style="rounded=0;whiteSpace=wrap;html=1;" parent="pv3PhT8Jc1KmmrtQ2b4k-1" vertex="1">
          <mxGeometry x="20" y="20" width="120" height="60" as="geometry" />
        </mxCell>
      </root>
    </mxGraphModel>
  </diagram>
</mxfile>
